<svg id="Layer_1" width="32" height="32" data-name="Layer 1" xmlns="http://www.w3.org/2000/svg" viewBox="0 0 32 32"><defs><style>.cls-1{fill:#f5af47;}.cls-2{fill:#fff;}</style></defs><circle class="cls-1" cx="16" cy="16" r="15"/><path class="cls-2" d="M16,2A14,14,0,1,1,2,16,14,14,0,0,1,16,2m0-2A16,16,0,1,0,32,16,16,16,0,0,0,16,0Z"/><path class="cls-2" d="M11,9.35A1,1,0,0,1,11.73,9h8.54a1,1,0,0,1,.76.35l2.61,3a1.54,1.54,0,0,1,.36,1v.25a2.37,2.37,0,0,1-4.25,1.46,2.37,2.37,0,0,1-3.75,0,2.37,2.37,0,0,1-3.75,0A2.37,2.37,0,0,1,8,13.62v-.25a1.54,1.54,0,0,1,.36-1l2.61-3Zm1.78,4.27a1.38,1.38,0,1,0,2.75,0,.5.5,0,1,1,1,0,1.38,1.38,0,1,0,2.75,0,.5.5,0,1,1,1,0,1.38,1.38,0,1,0,2.75,0v-.25a.47.47,0,0,0-.12-.32L20.27,10H11.73L9.12,13.05a.47.47,0,0,0-.12.32v.25a1.38,1.38,0,1,0,2.75,0,.5.5,0,1,1,1,0ZM9.5,16.5a.5.5,0,0,1,.5.5v6h1V18a1,1,0,0,1,1-1h3a1,1,0,0,1,1,1v5h6V17a.5.5,0,0,1,1,0v6h.5a.5.5,0,0,1,0,1H8.5a.5.5,0,0,1,0-1H9V17A.5.5,0,0,1,9.5,16.5ZM12,23h3V18H12Zm5-5a1,1,0,0,1,1-1h2a1,1,0,0,1,1,1v3a1,1,0,0,1-1,1H18a1,1,0,0,1-1-1Zm3,0H18v3h2Z"/></svg>